<svg width="544" height="507" xmlns="http://www.w3.org/2000/svg">
 <style type="text/css">.st0{fill:#1352E2;}
	.st1{fill:#272727;}</style>

 <g>
  <title>background</title>
  <rect fill="none" id="canvas_background" height="509" width="546" y="-1" x="-1"/>
 </g>
 <g>
  <title>Layer 1</title>
  <path id="svg_1" d="m358.9109,339.75079c-97.5,37.8 -77.1,-11.6 -77.1,161.9l86.8,0c0.2,-191.4 4.4,-167.3 -9.7,-161.9zm-23.6,134.6c-26.4,0 -19.7,12.9 -19.7,-65.1c26.3,0 19.7,-12.9 19.7,65.1z" class="st0"/>
  <path id="svg_2" d="m368.8109,121.75079l-86.8,0l0,154.4c111.5,-20.6 86.8,-0.2 86.8,-154.4zm-53.3,92.5c0,-78.1 -6.6,-65.1 19.7,-65.1c0.1,78 6.7,65.1 -19.7,65.1z" class="st0"/>
  <g id="svg_3">
   <path id="svg_4" d="m15.5109,409.05079c0,116.8 -22.5,92.6 86.8,92.6c0,-125.9 22.7,-101.8 -86.8,-92.6zm53.3,65.3c-26.4,0 -19.7,12.9 -19.7,-65.1c26.3,0 19.7,-12.9 19.7,65.1z" class="st0"/>
   <path id="svg_5" d="m49.2109,293.35079c0,-18.3 -5.1,-14.2 19.7,-14.2c0,17.6 -6.7,14.8 33.5,13.9l0,-171.3l-86.8,0c-0.1,201.4 -11.2,171.4 33.6,171.6zm0,-144.3c26.4,0 19.7,-12.9 19.7,65.1c-26.5,0.1 -19.7,13 -19.7,-65.1z" class="st0"/>
  </g>
  <path id="svg_6" d="m252.4109,95.95079c373.2,5.6 356.4,212.3 -245.6,205c1.5,43.4 -10.1,34.8 44.9,32.9c1.3,22.5 9.9,16.3 -43,19.3l5.4,47.2c677.2,-59.1 635.5,-337.9 238.3,-304.4zm77.7,0.7c-51.8,-3.7 -50.5,-0.4 -50.5,-2.4c56.9,-0.8 50.7,1.1 50.5,2.4zm79,11.1c-52.8,-12 -50,-5.1 -49.2,-10.5c11.2,1.1 50.9,4.8 49.2,10.5zm72.8,27.7c-30.9,-19.5 -46,-15.9 -43,-23.6c4.8,1.5 49.4,14.9 43,23.6zm-399.4,213c-1.7,-21.7 -11.2,-15.5 49,-19.8c2.3,20.1 11.8,14.1 -49,19.8zm80.3,-8.1c-2.6,-19.3 -11.8,-13.3 48.1,-20.4c3,17.8 12.3,12 -48.1,20.4zm79.7,-12c-3.6,-18.2 -12.2,-9.7 46.8,-21.5c3.7,14.4 12.2,11.1 -46.8,21.5zm78.8,-16.8c-4.7,-16.3 -12.4,-6.6 45.1,-23.8c4.3,11.6 12.9,9 -45.1,23.8zm76.9,-23.8c-6.7,-15.3 -11,-2.2 41.6,-27.9c4.7,7.7 15.1,6.6 -41.6,27.9zm91.7,-49.8c-23,19.7 -20.2,14.8 -25.3,8.2c13.5,-8.4 26.6,-18.3 36.1,-30.1c5.7,3.6 12.6,2.1 -10.8,21.9zm30.4,-43.2c-14.8,-3 -0.6,0.6 -6.9,-22.6c-6.6,-24.1 -16.5,-15 -5.8,-22.6c11.9,13.4 16.8,28.9 12.7,45.2z" class="st1"/>
  <circle id="svg_19" r="49.6" cy="55.15079" cx="58.3109" class="st1"/>
 </g>
</svg>