<?xml version="1.0" encoding="utf-8"?>
<!-- Generator: Adobe Illustrator 26.2.1, SVG Export Plug-In . SVG Version: 6.00 Build 0)  -->
<svg version="1.1" id="Слой_2_00000024711465998347402610000004708857278956887472_"
	 xmlns="http://www.w3.org/2000/svg" xmlns:xlink="http://www.w3.org/1999/xlink" x="0px" y="0px" viewBox="0 0 1000 732.4"
	 style="enable-background:new 0 0 1000 732.4;" xml:space="preserve">
<style type="text/css">
	.st0{fill:#1352E2;}
	.st1{fill:#272727;}
</style>
<path class="st0" d="M645.8,356.6c-97.5,37.8-77.1-11.6-77.1,161.9h86.8C655.7,327.1,659.9,351.2,645.8,356.6z M622.2,491.2
	c-26.4,0-19.7,12.9-19.7-65.1C628.8,426.1,622.2,413.2,622.2,491.2z"/>
<path class="st0" d="M655.7,138.6h-86.8V293C680.4,272.4,655.7,292.8,655.7,138.6z M602.4,231.1c0-78.1-6.6-65.1,19.7-65.1
	C622.2,244,628.8,231.1,602.4,231.1z"/>
<g>
	<path class="st0" d="M302.4,425.9c0,116.8-22.5,92.6,86.8,92.6C389.2,392.6,411.9,416.7,302.4,425.9z M355.7,491.2
		c-26.4,0-19.7,12.9-19.7-65.1C362.3,426.1,355.7,413.2,355.7,491.2z"/>
	<path class="st0" d="M336.1,310.2c0-18.3-5.1-14.2,19.7-14.2c0,17.6-6.7,14.8,33.5,13.9V138.6h-86.8
		C302.4,340,291.3,310,336.1,310.2z M336.1,165.9c26.4,0,19.7-12.9,19.7,65.1C329.3,231.1,336.1,244,336.1,165.9z"/>
</g>
<path class="st1" d="M539.3,112.8c373.2,5.6,356.4,212.3-245.6,205c1.5,43.4-10.1,34.8,44.9,32.9c1.3,22.5,9.9,16.3-43,19.3
	l5.4,47.2C978.2,358.1,936.5,79.3,539.3,112.8z M617,113.5c-51.8-3.7-50.5-0.4-50.5-2.4C623.4,110.3,617.2,112.2,617,113.5z
	 M696,124.6c-52.8-12-50-5.1-49.2-10.5C658,115.2,697.7,118.9,696,124.6z M768.8,152.3c-30.9-19.5-46-15.9-43-23.6
	C730.6,130.2,775.2,143.6,768.8,152.3z M369.4,365.3c-1.7-21.7-11.2-15.5,49-19.8C420.7,365.6,430.2,359.6,369.4,365.3z
	 M449.7,357.2c-2.6-19.3-11.8-13.3,48.1-20.4C500.8,354.6,510.1,348.8,449.7,357.2z M529.4,345.2c-3.6-18.2-12.2-9.7,46.8-21.5
	C579.9,338.1,588.4,334.8,529.4,345.2z M608.2,328.4c-4.7-16.3-12.4-6.6,45.1-23.8C657.6,316.2,666.2,313.6,608.2,328.4z
	 M685.1,304.6c-6.7-15.3-11-2.2,41.6-27.9C731.4,284.4,741.8,283.3,685.1,304.6z M776.8,254.8c-23,19.7-20.2,14.8-25.3,8.2
	c13.5-8.4,26.6-18.3,36.1-30.1C793.3,236.5,800.2,235,776.8,254.8z M807.2,211.6c-14.8-3-0.6,0.6-6.9-22.6
	c-6.6-24.1-16.5-15-5.8-22.6C806.4,179.8,811.3,195.3,807.2,211.6z"/>
<g>
	<path class="st1" d="M70.6,667.9h-14v37.8H30.8V598.8h42.1c12.7,0,22.6,2.8,29.8,8.4c7.1,5.6,10.7,13.7,10.7,23.8
		c0,7.5-1.5,13.7-4.5,18.5s-7.7,8.8-14.2,12l22.3,43.2v1.1H89.2L70.6,667.9z M56.6,648.1h16.3c4.9,0,8.6-1.3,11-3.9
		c2.4-2.6,3.7-6.2,3.7-10.9s-1.3-8.2-3.7-10.9c-2.4-2.6-6.2-3.9-11-3.9H56.6V648.1z"/>
	<path class="st1" d="M124.7,665.3c0-7.9,1.5-15,4.7-21.2c3-6.2,7.5-11,13.3-14.2c5.8-3.4,12.5-5.1,20.4-5.1c12,0,21.3,3.7,28.1,11
		c6.7,7.3,10.3,17.4,10.3,30.1v0.9c0,12.4-3.4,22.3-10.3,29.6c-6.9,7.3-16.3,10.9-27.9,10.9c-11.2,0-20.4-3.4-27.3-10.1
		c-6.9-6.7-10.5-15.9-11-27.5L124.7,665.3z M149.4,666.8c0,7.3,1.1,12.7,3.4,16.1c2.2,3.4,5.6,5.1,10.3,5.1
		c8.8,0,13.3-6.7,13.5-20.4v-2.4c0-14.2-4.5-21.3-13.7-21.3c-8.2,0-12.7,6.2-13.5,18.3V666.8z"/>
	<path class="st1" d="M257.1,705.7c-0.9-1.7-1.7-3.9-2.4-7.1c-4.5,5.8-10.9,8.6-19.1,8.6c-7.5,0-13.9-2.2-19.1-6.7
		c-5.2-4.5-7.9-10.3-7.9-17c0-8.6,3.2-15.2,9.5-19.5c6.4-4.5,15.5-6.6,27.7-6.6h7.7v-4.1c0-7.3-3.2-11-9.5-11c-5.8,0-8.8,3-8.8,8.8
		h-24.7c0-7.7,3.2-13.9,9.7-18.7c6.6-4.9,14.8-7.1,25.1-7.1c10.1,0,18.2,2.4,24,7.5c5.8,5.1,8.8,11.8,9,20.4v35.2
		c0.2,7.3,1.3,12.9,3.4,16.7v1.3h-24.5V705.7z M241.5,689.6c3,0,5.6-0.7,7.7-2.1c2.1-1.3,3.6-2.8,4.3-4.5v-12.7h-7.1
		c-8.6,0-12.9,3.9-12.9,11.6c0,2.2,0.7,4.1,2.2,5.4C237.2,688.9,239.3,689.6,241.5,689.6z"/>
	<path class="st1" d="M289.1,665.5c0-12.5,2.8-22.5,8.2-29.8c5.4-7.3,13.1-10.9,22.8-10.9c7.1,0,13.1,2.8,18,8.4V593H363v112.9
		h-22.3l-1.3-8.6c-5.1,6.7-11.6,9.9-19.5,9.9c-9.4,0-17-3.6-22.5-10.9C291.9,689.1,289.1,678.8,289.1,665.5z M313.8,667
		c0,14,4.1,21.2,12.4,21.2c5.4,0,9.4-2.2,11.8-6.9v-30.3c-2.2-4.7-6.2-7.1-11.6-7.1c-7.7,0-11.8,6.2-12.4,18.5L313.8,667z"/>
	<path class="st1" d="M443.1,606.5v19.8h13.1v17.2h-13.1v36.3c0,3,0.6,5.1,1.7,6.2s3.2,1.7,6.4,1.7c2.4,0,4.5-0.2,6.2-0.4v17.8
		c-4.5,1.5-9.2,2.1-14,2.1c-8.6,0-14.8-2.1-18.9-6c-4.1-3.9-6.2-10.1-6.2-18.3v-39.5h-10.1v-17.2h10.1v-19.8h24.9V606.5z"/>
	<path class="st1" d="M461.3,665.3c0-7.9,1.5-15,4.7-21.2c3-6.2,7.5-11,13.3-14.2c5.8-3.2,12.5-5.1,20.4-5.1c12,0,21.3,3.7,28.1,11
		c6.9,7.3,10.3,17.4,10.3,30.1v0.9c0,12.4-3.4,22.3-10.3,29.6c-6.9,7.3-16.3,10.9-27.9,10.9c-11.2,0-20.4-3.4-27.3-10.1
		c-6.9-6.7-10.5-15.9-11-27.5L461.3,665.3z M486.2,666.8c0,7.3,1.1,12.7,3.4,16.1c2.2,3.4,5.6,5.1,10.3,5.1
		c8.8,0,13.3-6.7,13.5-20.4v-2.4c0-14.2-4.5-21.3-13.7-21.3c-8.2,0-12.7,6.2-13.5,18.3V666.8z"/>
	<path class="st1" d="M615.1,606.5v19.8h13.1v17.2h-13.1v36.3c0,3,0.6,5.1,1.7,6.2c1.1,1.1,3.2,1.7,6.4,1.7c2.4,0,4.5-0.2,6.2-0.4
		v17.8c-4.5,1.5-9.2,2.1-14,2.1c-8.6,0-14.8-2.1-18.9-6c-4.1-3.9-6.2-10.1-6.2-18.3v-39.5h-10.1v-17.2h10.1v-19.8h24.9V606.5z"/>
	<path class="st1" d="M662.3,634.8c5.2-6.7,12-9.9,20.2-9.9c8.8,0,15.3,2.6,19.8,7.9c4.5,5.2,6.7,12.9,6.7,23v50.2h-24.9v-49.6
		c0-4.1-0.9-7.3-2.6-9.4c-1.7-2.1-4.7-3-8.8-3c-5.1,0-8.6,1.7-10.9,4.9v57.1h-24.7V593h24.7v41.7H662.3z"/>
	<path class="st1" d="M761.3,707.2c-12.2,0-22.1-3.6-29.6-10.9c-7.5-7.3-11.2-16.7-11.2-28.5v-2.1c0-8,1.5-15.3,4.5-21.5
		c3-6.2,7.5-11,13.1-14.4c5.6-3.4,12.5-5.1,20.6-5.1c11.2,0,20,3.6,26.4,10.5c6.6,6.9,9.7,16.7,9.7,29v9.5h-49.2
		c0.9,4.5,2.8,8,5.8,10.5c3,2.4,6.9,3.7,11.6,3.7c7.9,0,14-2.8,18.3-8.2l11.2,13.3c-3,4.3-7.5,7.7-13.1,10.1
		C774,705.9,767.9,707.2,761.3,707.2z M758.5,644c-7.3,0-11.6,4.9-12.9,14.4h24.9v-1.9c0.2-3.9-0.9-7.1-3-9.2S762.4,644,758.5,644z"
		/>
	<path class="st1" d="M870.8,705.7h-25.6V598.8h25.6V705.7z"/>
	<path class="st1" d="M973,618.7h-32v87h-25.8v-87h-31.4v-19.8h89.5v19.8H973z"/>
</g>
<circle class="st1" cx="345.2" cy="72" r="49.6"/>
</svg>
